# xmcd CD database file
#
# Track frame offsets:
#	150
#	29212
#	51742
#	76170
#	100277
#	129902
#	154375
#	186500
#	213250
#	240765
#	264542
#	296330
#
# Disc length: 4286 seconds
#
# Revision: 0
# Processed by: cddbd v1.4PL0 Copyright (c) Steve Scherf et al.
# Submitted via: CDex 1.51
#
DISCID=ac10bc0c
DTITLE=Jazz and Tzaz - 127 - Jazz Goes to Cinema
DYEAR=2003
DGENRE=Jazz
TTITLE0=Abdullah Ibrahim - Angelica
TTITLE1=Abraham Burton - Laura
TTITLE2=Antonio Hart - Somewhere
TTITLE3=Bennie Wallace - How Long Has This Been Going On
TTITLE4=Benny Bailey - Do You Know What It Means to Miss New Orleans
TTITLE5=Ferenc Snetberger - Manha de Carnaval
TTITLE6=Gilad Atzmon and The Orient House Ensemble - Singing in the Rain
TTITLE7=Jenny Evans - Girl Talk
TTITLE8=Kevin Mahogany - When I Fall in Love
TTITLE9=Lee Konitz - I Cried for You
TTITLE10=Maria Schneider Jazz Orchestra - Love Theme from "Spartacus"
TTITLE11=Philip Catherine - Niels-Henning Orsted-Pedersen - My Favorite Things
EXTD=YEAR: 2003
EXTT0=
EXTT1=
EXTT2=
EXTT3=
EXTT4=
EXTT5=
EXTT6=
EXTT7=
EXTT8=
EXTT9=
EXTT10=
EXTT11=
PLAYORDER=
